<svg version="1.2" xmlns="http://www.w3.org/2000/svg" viewBox="0 0 20 20" width="20" height="20">
	<title>instagram-svg</title>
	<style>
		.s0 { fill: #000000 } 
	</style>
	<path id="Layer" fill-rule="evenodd" class="s0" d="m13.7 0c3.5 0 6.3 2.8 6.3 6.2v7.5c0 3.5-2.8 6.3-6.3 6.3h-7.4c-3.5 0-6.3-2.8-6.3-6.3v-7.4c0-3.5 2.8-6.3 6.2-6.3zm-7.5 1.9c-2.4 0-4.3 1.9-4.3 4.4v7.5c0 2.4 1.9 4.3 4.3 4.3h7.6c2.4 0 4.3-1.9 4.3-4.3v-7.6c0-2.4-1.9-4.3-4.4-4.3z"/>
	<path id="Layer" fill-rule="evenodd" class="s0" d="m5 10c0-2.8 2.2-5 5-5 2.8 0 5 2.2 5 5 0 2.8-2.2 5-5 5-2.8 0-5-2.2-5-5zm5 3.1c1.7 0 3.1-1.4 3.1-3.1 0-1.7-1.4-3.1-3.1-3.1-1.7 0-3.1 1.4-3.1 3.1 0 1.7 1.4 3.1 3.1 3.1z"/>
	<path id="Layer" class="s0" d="m14.7 4.6c0-0.3 0.3-0.6 0.7-0.6 0.3 0 0.6 0.3 0.6 0.6 0 0.4-0.3 0.7-0.6 0.7-0.4 0-0.7-0.3-0.7-0.7z"/>
</svg>